<svg width="9" height="10" viewBox="0 0 9 10" fill="none" xmlns="http://www.w3.org/2000/svg">
<path d="M7.55558 2.77778L7.17025 8.17422C7.15429 8.39848 7.05394 8.60836 6.88941 8.76159C6.72489 8.91482 6.50841 9.00001 6.28358 9H2.60536C2.38053 9.00001 2.16406 8.91482 1.99953 8.76159C1.83501 8.60836 1.73466 8.39848 1.71869 8.17422L1.33336 2.77778M3.55558 4.55556V7.22222M5.33336 4.55556V7.22222M5.7778 2.77778V1.44444C5.7778 1.32657 5.73098 1.21352 5.64763 1.13017C5.56428 1.04683 5.45123 1 5.33336 1H3.55558C3.43771 1 3.32466 1.04683 3.24131 1.13017C3.15796 1.21352 3.11114 1.32657 3.11114 1.44444V2.77778M0.888916 2.77778H8.00003" stroke="#023059" stroke-width="0.7" stroke-linecap="round" stroke-linejoin="round"/>
</svg>
