<svg width="12" height="14" viewBox="0 0 12 14" fill="none" xmlns="http://www.w3.org/2000/svg">
<path d="M3.85714 10.3333V9M6 10.3333V7.66667M8.14286 10.3333V6.33333M9.57143 13H2.42857C2.04969 13 1.68633 12.8595 1.41842 12.6095C1.15051 12.3594 1 12.0203 1 11.6667V2.33333C1 1.97971 1.15051 1.64057 1.41842 1.39052C1.68633 1.14048 2.04969 1 2.42857 1H6.41857C6.608 1.00004 6.78965 1.0703 6.92357 1.19533L10.7907 4.80467C10.9247 4.92966 11 5.0992 11 5.276V11.6667C11 12.0203 10.8495 12.3594 10.5816 12.6095C10.3137 12.8595 9.95031 13 9.57143 13Z" stroke="#FEFEFE" stroke-linecap="round" stroke-linejoin="round"/>
</svg>
