<svg width="14" height="12" viewBox="0 0 14 12" fill="none" xmlns="http://www.w3.org/2000/svg">
<path d="M9 1.33337V2.66671M9 5.33337V6.66671M9 9.33337V10.6667M2.33333 1.33337C1.97971 1.33337 1.64057 1.47385 1.39052 1.7239C1.14048 1.97395 1 2.31309 1 2.66671V4.66671C1.35362 4.66671 1.69276 4.80718 1.94281 5.05723C2.19286 5.30728 2.33333 5.64642 2.33333 6.00004C2.33333 6.35366 2.19286 6.6928 1.94281 6.94285C1.69276 7.1929 1.35362 7.33337 1 7.33337V9.33337C1 9.687 1.14048 10.0261 1.39052 10.2762C1.64057 10.5262 1.97971 10.6667 2.33333 10.6667H11.6667C12.0203 10.6667 12.3594 10.5262 12.6095 10.2762C12.8595 10.0261 13 9.687 13 9.33337V7.33337C12.6464 7.33337 12.3072 7.1929 12.0572 6.94285C11.8071 6.6928 11.6667 6.35366 11.6667 6.00004C11.6667 5.64642 11.8071 5.30728 12.0572 5.05723C12.3072 4.80718 12.6464 4.66671 13 4.66671V2.66671C13 2.31309 12.8595 1.97395 12.6095 1.7239C12.3594 1.47385 12.0203 1.33337 11.6667 1.33337H2.33333Z" stroke="#023059" stroke-linecap="round" stroke-linejoin="round"/>
</svg>
