<svg width="16" height="20" viewBox="0 0 16 20" fill="none" xmlns="http://www.w3.org/2000/svg">
<path d="M13.2654 6.21087L7.78571 0.727295L2.30597 6.21087C-0.721049 9.24001 -0.721049 14.1489 2.30597 17.178C3.81828 18.6914 5.80199 19.4481 7.78571 19.4481C9.76942 19.4481 11.7531 18.6914 13.2654 17.178C16.2925 14.1489 16.2925 9.24001 13.2654 6.21087ZM12.4064 12.408C12.3944 12.7457 12.3418 13.0713 12.2532 13.3826C11.9709 14.1249 11.332 14.6925 10.5447 14.872C10.3964 14.9056 10.2432 14.9271 10.0853 14.9319H10.0805C10.0733 14.9319 10.0661 14.9319 10.0614 14.9319C10.0446 14.9319 10.0255 14.9319 10.0087 14.9319C9.99196 14.9319 9.9776 14.9319 9.96085 14.9319C9.76463 14.9295 9.5732 14.9151 9.38656 14.8864C9.14248 14.8505 8.90558 14.7906 8.67586 14.714C7.45549 14.3021 6.49115 13.3395 6.07478 12.1207C6.05564 12.068 6.03889 12.0129 6.02453 11.9602C6.02453 11.9578 6.02214 11.9555 6.02214 11.9531C5.95514 11.7256 5.90728 11.4909 5.88096 11.2514C5.78524 11.4765 5.71106 11.7136 5.65842 11.9578C5.65363 11.9794 5.64885 12.0009 5.64406 12.0225C5.6297 12.0943 5.61774 12.1662 5.60577 12.238C5.57706 12.4392 5.56031 12.6451 5.56031 12.8558C5.56031 13.0833 5.57945 13.3036 5.61295 13.5215C5.72063 14.1968 5.99103 14.8146 6.38347 15.3414C6.0006 15.2432 5.65603 15.0516 5.37127 14.793C5.0913 14.5368 4.87115 14.2159 4.73715 13.852C4.72758 13.9334 4.72519 14.0172 4.72519 14.101C4.72519 14.2399 4.73715 14.3764 4.75869 14.5081C4.87833 15.2169 5.30906 15.8179 5.90489 16.1699C4.58879 15.6934 3.58378 14.5727 3.26791 13.1863C3.26791 13.1863 3.26791 13.1863 3.26791 13.1839C3.2057 12.8534 3.1722 12.5158 3.16502 12.171V12.1686C3.1698 11.977 3.18655 11.7902 3.21527 11.6058C3.20331 11.6011 3.19373 11.5939 3.18177 11.5891C3.24398 10.7653 3.47131 9.98711 3.82785 9.2879C3.83024 9.5082 3.8446 9.72371 3.87092 9.93683C3.92835 10.4181 4.04082 10.8827 4.20354 11.3233C4.28011 11.5316 4.36865 11.7328 4.46676 11.9291C4.42847 11.6082 4.40693 11.2802 4.40693 10.9473C4.40693 10.8635 4.40933 10.7797 4.41172 10.6959C4.41172 10.6863 4.41172 10.6767 4.41172 10.6648C4.43086 10.126 4.50026 9.59919 4.6199 9.09154C4.74433 8.55516 4.92141 8.04032 5.14634 7.55183C5.18223 7.47281 5.22052 7.39139 5.2612 7.31477C5.80678 6.22524 6.58926 5.27459 7.54163 4.53227C7.91253 4.24492 8.30736 3.98631 8.72372 3.76601C8.38872 4.06294 8.10157 4.41254 7.87424 4.80286C7.6182 5.24346 7.44352 5.73435 7.36456 6.25876C7.33584 6.44554 7.32148 6.6371 7.3167 6.83346C7.3167 6.85022 7.3167 6.86938 7.3167 6.88614C7.3167 7.11602 7.33584 7.34111 7.37173 7.56141C7.40284 7.74579 7.44352 7.92538 7.49856 8.10019C7.50334 8.12174 7.51052 8.1409 7.5177 8.16005C7.62299 8.4905 7.76896 8.8018 7.94842 9.08915C8.1255 9.3741 8.33607 9.63511 8.57536 9.86738C8.60886 9.91049 8.65193 9.9488 8.6974 9.98232C8.78833 10.0446 8.8984 10.0829 9.01805 10.0829C9.32913 10.0829 9.58277 9.82907 9.58277 9.51778C9.58277 9.04844 9.46313 8.60544 9.25495 8.21992C9.71677 8.33486 10.1451 8.52642 10.5328 8.77785C11.3176 9.29269 11.9158 10.0685 12.2102 10.9809C12.3394 11.3831 12.4088 11.8118 12.4088 12.2572C12.4088 12.3051 12.4088 12.3553 12.4064 12.408Z" fill="#F20F38"/>
</svg>
